STARTFONT 2.1
COMMENT $XConsortium: 8x13.bdf,v 1.13 92/04/02 14:25:48 gildea Exp $
COMMENT ""
COMMENT Characters above 127 designed and made by
COMMENT by Thomas Bagli (pyramid!pcsbst!tom@uunet.UU.NET)
COMMENT PCS Computer Systeme, West Germany
COMMENT ""
FONT -Misc-Fixed-Medium-R-Normal--13-120-75-75-C-80-iso10646-0400
SIZE 13 78 78
FONTBOUNDINGBOX 8 13 0 -2
STARTPROPERTIES 23
FONTNAME_REGISTRY ""
FOUNDRY "Misc"
FAMILY_NAME "Fixed"
WEIGHT_NAME "Medium"
SLANT "R"
SETWIDTH_NAME "Normal"
ADD_STYLE_NAME ""
PIXEL_SIZE 13
POINT_SIZE 120
RESOLUTION_X 75
RESOLUTION_Y 75
SPACING "C"
AVERAGE_WIDTH 80
CHARSET_REGISTRY "iso10646"
CHARSET_ENCODING "0400"
DEFAULT_CHAR 0
FONT_DESCENT 2
FONT_ASCENT 11
COPYRIGHT "Public domain font.  Share and enjoy."
COPYRIGHT2 "Cyrillic and special glyphs copyright 2000 Dmitry Yu. Bolkhovityanov, bolkhov@inp.nsk.su"
SOURCEDATE "Tue Aug  1 20:35:16 2000"
PKGVERSION "1.1"
ASSEMBLER "cvtbdf.pl (Linux)"
ENDPROPERTIES
CHARS 340
STARTCHAR null
ENCODING 0
SWIDTH 666 0
DWIDTH 8 0
BBX 8 13 0 -2
BITMAP
00
00
7E
7E
7E
7E
7E
7E
7E
7E
7E
00
00
ENDCHAR
STARTCHAR ctrlA
ENCODING 1
SWIDTH 666 0
DWIDTH 8 0
BBX 8 13 0 -2
BITMAP
00
00
00
10
38
7C
FE
7C
38
10
00
00
00
ENDCHAR
STARTCHAR ctrlB
ENCODING 2
SWIDTH 666 0
DWIDTH 8 0
BBX 8 13 0 -2
BITMAP
00
AA
55
AA
55
AA
55
AA
55
AA
55
AA
55
ENDCHAR
STARTCHAR ctrlC
ENCODING 3
SWIDTH 666 0
DWIDTH 8 0
BBX 8 13 0 -2
BITMAP
00
00
00
00
88
88
F8
88
88
3E
08
08
08
ENDCHAR
STARTCHAR ctrlD
ENCODING 4
SWIDTH 666 0
DWIDTH 8 0
BBX 8 13 0 -2
BITMAP
00
00
00
00
F0
80
E0
80
9E
10
1C
10
10
ENDCHAR
STARTCHAR ctrlE
ENCODING 5
SWIDTH 666 0
DWIDTH 8 0
BBX 8 13 0 -2
BITMAP
00
00
00
00
78
80
80
78
3C
22
3C
22
22
ENDCHAR
STARTCHAR ctrlF
ENCODING 6
SWIDTH 666 0
DWIDTH 8 0
BBX 8 13 0 -2
BITMAP
00
00
00
00
80
80
80
F8
3E
20
3C
20
20
ENDCHAR
STARTCHAR ctrlG
ENCODING 7
SWIDTH 666 0
DWIDTH 8 0
BBX 8 13 0 -2
BITMAP
00
00
38
44
44
38
00
00
00
00
00
00
00
ENDCHAR
STARTCHAR ctrlH
ENCODING 8
SWIDTH 666 0
DWIDTH 8 0
BBX 8 13 0 -2
BITMAP
00
00
00
00
00
10
10
FE
10
10
FE
00
00
ENDCHAR
STARTCHAR ctrlI
ENCODING 9
SWIDTH 666 0
DWIDTH 8 0
BBX 8 13 0 -2
BITMAP
00
00
00
00
88
C8
A8
98
88
20
20
20
3E
ENDCHAR
STARTCHAR ctrlJ
ENCODING 10
SWIDTH 666 0
DWIDTH 8 0
BBX 8 13 0 -2
BITMAP
00
00
00
00
88
88
50
20
3E
08
08
08
08
ENDCHAR
STARTCHAR ldcornsqlr
ENCODING 11
SWIDTH 666 0
DWIDTH 8 0
BBX 8 13 0 -2
BITMAP
10
10
10
10
10
10
10
F0
00
00
00
00
00
ENDCHAR
STARTCHAR ldcornsqur
ENCODING 12
SWIDTH 666 0
DWIDTH 8 0
BBX 8 13 0 -2
BITMAP
00
00
00
00
00
00
00
F0
10
10
10
10
10
ENDCHAR
STARTCHAR ldcornsqul
ENCODING 13
SWIDTH 666 0
DWIDTH 8 0
BBX 8 13 0 -2
BITMAP
00
00
00
00
00
00
00
1F
10
10
10
10
10
ENDCHAR
STARTCHAR ldcornsqll
ENCODING 14
SWIDTH 666 0
DWIDTH 8 0
BBX 8 13 0 -2
BITMAP
10
10
10
10
10
10
10
1F
00
00
00
00
00
ENDCHAR
STARTCHAR ldcross
ENCODING 15
SWIDTH 666 0
DWIDTH 8 0
BBX 8 13 0 -2
BITMAP
10
10
10
10
10
10
10
FF
10
10
10
10
10
ENDCHAR
STARTCHAR ctrlP
ENCODING 16
SWIDTH 666 0
DWIDTH 8 0
BBX 8 13 0 -2
BITMAP
00
00
00
FF
00
00
00
00
00
00
00
00
00
ENDCHAR
STARTCHAR ctrlQ
ENCODING 17
SWIDTH 666 0
DWIDTH 8 0
BBX 8 13 0 -2
BITMAP
00
00
00
00
00
FF
00
00
00
00
00
00
00
ENDCHAR
STARTCHAR ldhorizontal
ENCODING 18
SWIDTH 666 0
DWIDTH 8 0
BBX 8 13 0 -2
BITMAP
00
00
00
00
00
00
00
FF
00
00
00
00
00
ENDCHAR
STARTCHAR ctrlS
ENCODING 19
SWIDTH 666 0
DWIDTH 8 0
BBX 8 13 0 -2
BITMAP
00
00
00
00
00
00
00
00
00
FF
00
00
00
ENDCHAR
STARTCHAR ctrlT
ENCODING 20
SWIDTH 666 0
DWIDTH 8 0
BBX 8 13 0 -2
BITMAP
00
00
00
00
00
00
00
00
00
00
00
FF
00
ENDCHAR
STARTCHAR ldteelft
ENCODING 21
SWIDTH 666 0
DWIDTH 8 0
BBX 8 13 0 -2
BITMAP
10
10
10
10
10
10
10
1F
10
10
10
10
10
ENDCHAR
STARTCHAR ldteert
ENCODING 22
SWIDTH 666 0
DWIDTH 8 0
BBX 8 13 0 -2
BITMAP
10
10
10
10
10
10
10
F0
10
10
10
10
10
ENDCHAR
STARTCHAR ldteebt
ENCODING 23
SWIDTH 666 0
DWIDTH 8 0
BBX 8 13 0 -2
BITMAP
10
10
10
10
10
10
10
FF
00
00
00
00
00
ENDCHAR
STARTCHAR ldteetp
ENCODING 24
SWIDTH 666 0
DWIDTH 8 0
BBX 8 13 0 -2
BITMAP
00
00
00
00
00
00
00
FF
10
10
10
10
10
ENDCHAR
STARTCHAR ldvertical
ENCODING 25
SWIDTH 666 0
DWIDTH 8 0
BBX 8 13 0 -2
BITMAP
10
10
10
10
10
10
10
10
10
10
10
10
10
ENDCHAR
STARTCHAR ctrlZ
ENCODING 26
SWIDTH 666 0
DWIDTH 8 0
BBX 8 13 0 -2
BITMAP
00
00
00
02
08
20
80
20
08
02
FE
00
00
ENDCHAR
STARTCHAR ctrlBRL
ENCODING 27
SWIDTH 666 0
DWIDTH 8 0
BBX 8 13 0 -2
BITMAP
00
00
00
80
20
08
02
08
20
80
FE
00
00
ENDCHAR
STARTCHAR ctrlBSLASH
ENCODING 28
SWIDTH 666 0
DWIDTH 8 0
BBX 8 13 0 -2
BITMAP
00
00
00
00
00
7E
24
24
24
24
44
00
00
ENDCHAR
STARTCHAR ctrlBRR
ENCODING 29
SWIDTH 666 0
DWIDTH 8 0
BBX 8 13 0 -2
BITMAP
00
00
00
00
02
04
FE
10
FE
40
80
00
00
ENDCHAR
STARTCHAR ctrlCARET
ENCODING 30
SWIDTH 666 0
DWIDTH 8 0
BBX 8 13 0 -2
BITMAP
00
00
1C
22
20
70
20
20
20
62
DC
00
00
ENDCHAR
STARTCHAR ctrlUND
ENCODING 31
SWIDTH 666 0
DWIDTH 8 0
BBX 8 13 0 -2
BITMAP
00
00
00
00
00
00
00
10
00
00
00
00
00
ENDCHAR
STARTCHAR space
ENCODING 32
SWIDTH 666 0
DWIDTH 8 0
BBX 8 13 0 -2
BITMAP
00
00
00
00
00
00
00
00
00
00
00
00
00
ENDCHAR
STARTCHAR exclam
ENCODING 33
SWIDTH 666 0
DWIDTH 8 0
BBX 8 13 0 -2
BITMAP
00
00
10
10
10
10
10
10
10
00
10
00
00
ENDCHAR
STARTCHAR quotedbl
ENCODING 34
SWIDTH 666 0
DWIDTH 8 0
BBX 8 13 0 -2
BITMAP
00
00
24
24
24
00
00
00
00
00
00
00
00
ENDCHAR
STARTCHAR numbersign
ENCODING 35
SWIDTH 666 0
DWIDTH 8 0
BBX 8 13 0 -2
BITMAP
00
00
00
24
24
7E
24
7E
24
24
00
00
00
ENDCHAR
STARTCHAR dollar
ENCODING 36
SWIDTH 666 0
DWIDTH 8 0
BBX 8 13 0 -2
BITMAP
00
00
00
10
3C
50
38
14
78
10
00
00
00
ENDCHAR
STARTCHAR percent
ENCODING 37
SWIDTH 666 0
DWIDTH 8 0
BBX 8 13 0 -2
BITMAP
00
00
22
52
24
08
08
10
24
2A
44
00
00
ENDCHAR
STARTCHAR ampersand
ENCODING 38
SWIDTH 666 0
DWIDTH 8 0
BBX 8 13 0 -2
BITMAP
00
00
00
00
30
48
48
30
4A
44
3A
00
00
ENDCHAR
STARTCHAR quotesingle
ENCODING 39
SWIDTH 666 0
DWIDTH 8 0
BBX 8 13 0 -2
BITMAP
00
00
10
10
10
00
00
00
00
00
00
00
00
ENDCHAR
STARTCHAR parenleft
ENCODING 40
SWIDTH 666 0
DWIDTH 8 0
BBX 8 13 0 -2
BITMAP
00
00
04
08
08
10
10
10
08
08
04
00
00
ENDCHAR
STARTCHAR parenright
ENCODING 41
SWIDTH 666 0
DWIDTH 8 0
BBX 8 13 0 -2
BITMAP
00
00
20
10
10
08
08
08
10
10
20
00
00
ENDCHAR
STARTCHAR asterisk
ENCODING 42
SWIDTH 666 0
DWIDTH 8 0
BBX 8 13 0 -2
BITMAP
00
00
00
00
24
18
7E
18
24
00
00
00
00
ENDCHAR
STARTCHAR plus
ENCODING 43
SWIDTH 666 0
DWIDTH 8 0
BBX 8 13 0 -2
BITMAP
00
00
00
00
10
10
7C
10
10
00
00
00
00
ENDCHAR
STARTCHAR comma
ENCODING 44
SWIDTH 666 0
DWIDTH 8 0
BBX 8 13 0 -2
BITMAP
00
00
00
00
00
00
00
00
00
38
30
40
00
ENDCHAR
STARTCHAR minus
ENCODING 45
SWIDTH 666 0
DWIDTH 8 0
BBX 8 13 0 -2
BITMAP
00
00
00
00
00
00
7E
00
00
00
00
00
00
ENDCHAR
STARTCHAR period
ENCODING 46
SWIDTH 666 0
DWIDTH 8 0
BBX 8 13 0 -2
BITMAP
00
00
00
00
00
00
00
00
00
10
38
10
00
ENDCHAR
STARTCHAR slash
ENCODING 47
SWIDTH 666 0
DWIDTH 8 0
BBX 8 13 0 -2
BITMAP
00
00
02
02
04
08
10
20
40
80
80
00
00
ENDCHAR
STARTCHAR zero
ENCODING 48
SWIDTH 666 0
DWIDTH 8 0
BBX 8 13 0 -2
BITMAP
00
00
18
24
42
42
42
42
42
24
18
00
00
ENDCHAR
STARTCHAR one
ENCODING 49
SWIDTH 666 0
DWIDTH 8 0
BBX 8 13 0 -2
BITMAP
00
00
10
30
50
10
10
10
10
10
7C
00
00
ENDCHAR
STARTCHAR two
ENCODING 50
SWIDTH 666 0
DWIDTH 8 0
BBX 8 13 0 -2
BITMAP
00
00
3C
42
42
02
04
18
20
40
7E
00
00
ENDCHAR
STARTCHAR three
ENCODING 51
SWIDTH 666 0
DWIDTH 8 0
BBX 8 13 0 -2
BITMAP
00
00
7E
02
04
08
1C
02
02
42
3C
00
00
ENDCHAR
STARTCHAR four
ENCODING 52
SWIDTH 666 0
DWIDTH 8 0
BBX 8 13 0 -2
BITMAP
00
00
04
0C
14
24
44
44
7E
04
04
00
00
ENDCHAR
STARTCHAR five
ENCODING 53
SWIDTH 666 0
DWIDTH 8 0
BBX 8 13 0 -2
BITMAP
00
00
7E
40
40
5C
62
02
02
42
3C
00
00
ENDCHAR
STARTCHAR six
ENCODING 54
SWIDTH 666 0
DWIDTH 8 0
BBX 8 13 0 -2
BITMAP
00
00
1C
20
40
40
5C
62
42
42
3C
00
00
ENDCHAR
STARTCHAR seven
ENCODING 55
SWIDTH 666 0
DWIDTH 8 0
BBX 8 13 0 -2
BITMAP
00
00
7E
02
04
08
08
10
10
20
20
00
00
ENDCHAR
STARTCHAR eight
ENCODING 56
SWIDTH 666 0
DWIDTH 8 0
BBX 8 13 0 -2
BITMAP
00
00
3C
42
42
42
3C
42
42
42
3C
00
00
ENDCHAR
STARTCHAR nine
ENCODING 57
SWIDTH 666 0
DWIDTH 8 0
BBX 8 13 0 -2
BITMAP
00
00
3C
42
42
46
3A
02
02
04
38
00
00
ENDCHAR
STARTCHAR colon
ENCODING 58
SWIDTH 666 0
DWIDTH 8 0
BBX 8 13 0 -2
BITMAP
00
00
00
00
10
38
10
00
00
10
38
10
00
ENDCHAR
STARTCHAR semicolon
ENCODING 59
SWIDTH 666 0
DWIDTH 8 0
BBX 8 13 0 -2
BITMAP
00
00
00
00
10
38
10
00
00
38
30
40
00
ENDCHAR
STARTCHAR less
ENCODING 60
SWIDTH 666 0
DWIDTH 8 0
BBX 8 13 0 -2
BITMAP
00
00
02
04
08
10
20
10
08
04
02
00
00
ENDCHAR
STARTCHAR equal
ENCODING 61
SWIDTH 666 0
DWIDTH 8 0
BBX 8 13 0 -2
BITMAP
00
00
00
00
00
7E
00
00
7E
00
00
00
00
ENDCHAR
STARTCHAR greater
ENCODING 62
SWIDTH 666 0
DWIDTH 8 0
BBX 8 13 0 -2
BITMAP
00
00
40
20
10
08
04
08
10
20
40
00
00
ENDCHAR
STARTCHAR question
ENCODING 63
SWIDTH 666 0
DWIDTH 8 0
BBX 8 13 0 -2
BITMAP
00
00
3C
42
42
02
04
08
08
00
08
00
00
ENDCHAR
STARTCHAR at
ENCODING 64
SWIDTH 666 0
DWIDTH 8 0
BBX 8 13 0 -2
BITMAP
00
00
3C
42
42
4E
52
56
4A
40
3C
00
00
ENDCHAR
STARTCHAR A
ENCODING 65
SWIDTH 666 0
DWIDTH 8 0
BBX 8 13 0 -2
BITMAP
00
00
18
24
42
42
42
7E
42
42
42
00
00
ENDCHAR
STARTCHAR B
ENCODING 66
SWIDTH 666 0
DWIDTH 8 0
BBX 8 13 0 -2
BITMAP
00
00
FC
42
42
42
7C
42
42
42
FC
00
00
ENDCHAR
STARTCHAR C
ENCODING 67
SWIDTH 666 0
DWIDTH 8 0
BBX 8 13 0 -2
BITMAP
00
00
3C
42
40
40
40
40
40
42
3C
00
00
ENDCHAR
STARTCHAR D
ENCODING 68
SWIDTH 666 0
DWIDTH 8 0
BBX 8 13 0 -2
BITMAP
00
00
FC
42
42
42
42
42
42
42
FC
00
00
ENDCHAR
STARTCHAR E
ENCODING 69
SWIDTH 666 0
DWIDTH 8 0
BBX 8 13 0 -2
BITMAP
00
00
7E
40
40
40
78
40
40
40
7E
00
00
ENDCHAR
STARTCHAR F
ENCODING 70
SWIDTH 666 0
DWIDTH 8 0
BBX 8 13 0 -2
BITMAP
00
00
7E
40
40
40
78
40
40
40
40
00
00
ENDCHAR
STARTCHAR G
ENCODING 71
SWIDTH 666 0
DWIDTH 8 0
BBX 8 13 0 -2
BITMAP
00
00
3C
42
40
40
40
4E
42
46
3A
00
00
ENDCHAR
STARTCHAR H
ENCODING 72
SWIDTH 666 0
DWIDTH 8 0
BBX 8 13 0 -2
BITMAP
00
00
42
42
42
42
7E
42
42
42
42
00
00
ENDCHAR
STARTCHAR I
ENCODING 73
SWIDTH 666 0
DWIDTH 8 0
BBX 8 13 0 -2
BITMAP
00
00
7C
10
10
10
10
10
10
10
7C
00
00
ENDCHAR
STARTCHAR J
ENCODING 74
SWIDTH 666 0
DWIDTH 8 0
BBX 8 13 0 -2
BITMAP
00
00
1E
04
04
04
04
04
04
44
38
00
00
ENDCHAR
STARTCHAR K
ENCODING 75
SWIDTH 666 0
DWIDTH 8 0
BBX 8 13 0 -2
BITMAP
00
00
42
44
48
50
60
50
48
44
42
00
00
ENDCHAR
STARTCHAR L
ENCODING 76
SWIDTH 666 0
DWIDTH 8 0
BBX 8 13 0 -2
BITMAP
00
00
40
40
40
40
40
40
40
40
7E
00
00
ENDCHAR
STARTCHAR M
ENCODING 77
SWIDTH 666 0
DWIDTH 8 0
BBX 8 13 0 -2
BITMAP
00
00
82
82
C6
AA
92
92
82
82
82
00
00
ENDCHAR
STARTCHAR N
ENCODING 78
SWIDTH 666 0
DWIDTH 8 0
BBX 8 13 0 -2
BITMAP
00
00
42
42
62
52
4A
46
42
42
42
00
00
ENDCHAR
STARTCHAR O
ENCODING 79
SWIDTH 666 0
DWIDTH 8 0
BBX 8 13 0 -2
BITMAP
00
00
3C
42
42
42
42
42
42
42
3C
00
00
ENDCHAR
STARTCHAR P
ENCODING 80
SWIDTH 666 0
DWIDTH 8 0
BBX 8 13 0 -2
BITMAP
00
00
7C
42
42
42
7C
40
40
40
40
00
00
ENDCHAR
STARTCHAR Q
ENCODING 81
SWIDTH 666 0
DWIDTH 8 0
BBX 8 13 0 -2
BITMAP
00
00
3C
42
42
42
42
42
52
4A
3C
02
00
ENDCHAR
STARTCHAR R
ENCODING 82
SWIDTH 666 0
DWIDTH 8 0
BBX 8 13 0 -2
BITMAP
00
00
7C
42
42
42
7C
50
48
44
42
00
00
ENDCHAR
STARTCHAR S
ENCODING 83
SWIDTH 666 0
DWIDTH 8 0
BBX 8 13 0 -2
BITMAP
00
00
3C
42
40
40
3C
02
02
42
3C
00
00
ENDCHAR
STARTCHAR T
ENCODING 84
SWIDTH 666 0
DWIDTH 8 0
BBX 8 13 0 -2
BITMAP
00
00
FE
10
10
10
10
10
10
10
10
00
00
ENDCHAR
STARTCHAR U
ENCODING 85
SWIDTH 666 0
DWIDTH 8 0
BBX 8 13 0 -2
BITMAP
00
00
42
42
42
42
42
42
42
42
3C
00
00
ENDCHAR
STARTCHAR V
ENCODING 86
SWIDTH 666 0
DWIDTH 8 0
BBX 8 13 0 -2
BITMAP
00
00
82
82
44
44
44
28
28
28
10
00
00
ENDCHAR
STARTCHAR W
ENCODING 87
SWIDTH 666 0
DWIDTH 8 0
BBX 8 13 0 -2
BITMAP
00
00
82
82
82
82
92
92
92
AA
44
00
00
ENDCHAR
STARTCHAR X
ENCODING 88
SWIDTH 666 0
DWIDTH 8 0
BBX 8 13 0 -2
BITMAP
00
00
82
82
44
28
10
28
44
82
82
00
00
ENDCHAR
STARTCHAR Y
ENCODING 89
SWIDTH 666 0
DWIDTH 8 0
BBX 8 13 0 -2
BITMAP
00
00
82
82
44
28
10
10
10
10
10
00
00
ENDCHAR
STARTCHAR Z
ENCODING 90
SWIDTH 666 0
DWIDTH 8 0
BBX 8 13 0 -2
BITMAP
00
00
7E
02
04
08
10
20
40
40
7E
00
00
ENDCHAR
STARTCHAR bracketleft
ENCODING 91
SWIDTH 666 0
DWIDTH 8 0
BBX 8 13 0 -2
BITMAP
00
00
3C
20
20
20
20
20
20
20
3C
00
00
ENDCHAR
STARTCHAR backslash
ENCODING 92
SWIDTH 666 0
DWIDTH 8 0
BBX 8 13 0 -2
BITMAP
00
00
80
80
40
20
10
08
04
02
02
00
00
ENDCHAR
STARTCHAR bracketright
ENCODING 93
SWIDTH 666 0
DWIDTH 8 0
BBX 8 13 0 -2
BITMAP
00
00
78
08
08
08
08
08
08
08
78
00
00
ENDCHAR
STARTCHAR asciicircum
ENCODING 94
SWIDTH 666 0
DWIDTH 8 0
BBX 8 13 0 -2
BITMAP
00
00
10
28
44
00
00
00
00
00
00
00
00
ENDCHAR
STARTCHAR underscore
ENCODING 95
SWIDTH 666 0
DWIDTH 8 0
BBX 8 13 0 -2
BITMAP
00
00
00
00
00
00
00
00
00
00
00
FE
00
ENDCHAR
STARTCHAR grave
ENCODING 96
SWIDTH 666 0
DWIDTH 8 0
BBX 8 13 0 -2
BITMAP
00
10
08
00
00
00
00
00
00
00
00
00
00
ENDCHAR
STARTCHAR a
ENCODING 97
SWIDTH 666 0
DWIDTH 8 0
BBX 8 13 0 -2
BITMAP
00
00
00
00
00
3C
02
3E
42
46
3A
00
00
ENDCHAR
STARTCHAR b
ENCODING 98
SWIDTH 666 0
DWIDTH 8 0
BBX 8 13 0 -2
BITMAP
00
00
40
40
40
5C
62
42
42
62
5C
00
00
ENDCHAR
STARTCHAR c
ENCODING 99
SWIDTH 666 0
DWIDTH 8 0
BBX 8 13 0 -2
BITMAP
00
00
00
00
00
3C
42
40
40
42
3C
00
00
ENDCHAR
STARTCHAR d
ENCODING 100
SWIDTH 666 0
DWIDTH 8 0
BBX 8 13 0 -2
BITMAP
00
00
02
02
02
3A
46
42
42
46
3A
00
00
ENDCHAR
STARTCHAR e
ENCODING 101
SWIDTH 666 0
DWIDTH 8 0
BBX 8 13 0 -2
BITMAP
00
00
00
00
00
3C
42
7E
40
42
3C
00
00
ENDCHAR
STARTCHAR f
ENCODING 102
SWIDTH 666 0
DWIDTH 8 0
BBX 8 13 0 -2
BITMAP
00
00
1C
22
20
20
7C
20
20
20
20
00
00
ENDCHAR
STARTCHAR g
ENCODING 103
SWIDTH 666 0
DWIDTH 8 0
BBX 8 13 0 -2
BITMAP
00
00
00
00
00
3A
44
44
38
40
3C
42
3C
ENDCHAR
STARTCHAR h
ENCODING 104
SWIDTH 666 0
DWIDTH 8 0
BBX 8 13 0 -2
BITMAP
00
00
40
40
40
5C
62
42
42
42
42
00
00
ENDCHAR
STARTCHAR i
ENCODING 105
SWIDTH 666 0
DWIDTH 8 0
BBX 8 13 0 -2
BITMAP
00
00
00
10
00
30
10
10
10
10
7C
00
00
ENDCHAR
STARTCHAR j
ENCODING 106
SWIDTH 666 0
DWIDTH 8 0
BBX 8 13 0 -2
BITMAP
00
00
00
04
00
0C
04
04
04
04
44
44
38
ENDCHAR
STARTCHAR k
ENCODING 107
SWIDTH 666 0
DWIDTH 8 0
BBX 8 13 0 -2
BITMAP
00
00
40
40
40
44
48
70
48
44
42
00
00
ENDCHAR
STARTCHAR l
ENCODING 108
SWIDTH 666 0
DWIDTH 8 0
BBX 8 13 0 -2
BITMAP
00
00
30
10
10
10
10
10
10
10
7C
00
00
ENDCHAR
STARTCHAR m
ENCODING 109
SWIDTH 666 0
DWIDTH 8 0
BBX 8 13 0 -2
BITMAP
00
00
00
00
00
EC
92
92
92
92
82
00
00
ENDCHAR
STARTCHAR n
ENCODING 110
SWIDTH 666 0
DWIDTH 8 0
BBX 8 13 0 -2
BITMAP
00
00
00
00
00
5C
62
42
42
42
42
00
00
ENDCHAR
STARTCHAR o
ENCODING 111
SWIDTH 666 0
DWIDTH 8 0
BBX 8 13 0 -2
BITMAP
00
00
00
00
00
3C
42
42
42
42
3C
00
00
ENDCHAR
STARTCHAR p
ENCODING 112
SWIDTH 666 0
DWIDTH 8 0
BBX 8 13 0 -2
BITMAP
00
00
00
00
00
5C
62
42
62
5C
40
40
40
ENDCHAR
STARTCHAR q
ENCODING 113
SWIDTH 666 0
DWIDTH 8 0
BBX 8 13 0 -2
BITMAP
00
00
00
00
00
3A
46
42
46
3A
02
02
02
ENDCHAR
STARTCHAR r
ENCODING 114
SWIDTH 666 0
DWIDTH 8 0
BBX 8 13 0 -2
BITMAP
00
00
00
00
00
5C
22
20
20
20
20
00
00
ENDCHAR
STARTCHAR s
ENCODING 115
SWIDTH 666 0
DWIDTH 8 0
BBX 8 13 0 -2
BITMAP
00
00
00
00
00
3C
42
30
0C
42
3C
00
00
ENDCHAR
STARTCHAR t
ENCODING 116
SWIDTH 666 0
DWIDTH 8 0
BBX 8 13 0 -2
BITMAP
00
00
00
20
20
7C
20
20
20
22
1C
00
00
ENDCHAR
STARTCHAR u
ENCODING 117
SWIDTH 666 0
DWIDTH 8 0
BBX 8 13 0 -2
BITMAP
00
00
00
00
00
44
44
44
44
44
3A
00
00
ENDCHAR
STARTCHAR v
ENCODING 118
SWIDTH 666 0
DWIDTH 8 0
BBX 8 13 0 -2
BITMAP
00
00
00
00
00
44
44
44
28
28
10
00
00
ENDCHAR
STARTCHAR w
ENCODING 119
SWIDTH 666 0
DWIDTH 8 0
BBX 8 13 0 -2
BITMAP
00
00
00
00
00
82
82
92
92
AA
44
00
00
ENDCHAR
STARTCHAR x
ENCODING 120
SWIDTH 666 0
DWIDTH 8 0
BBX 8 13 0 -2
BITMAP
00
00
00
00
00
42
24
18
18
24
42
00
00
ENDCHAR
STARTCHAR y
ENCODING 121
SWIDTH 666 0
DWIDTH 8 0
BBX 8 13 0 -2
BITMAP
00
00
00
00
00
42
42
42
46
3A
02
42
3C
ENDCHAR
STARTCHAR z
ENCODING 122
SWIDTH 666 0
DWIDTH 8 0
BBX 8 13 0 -2
BITMAP
00
00
00
00
00
7E
04
08
10
20
7E
00
00
ENDCHAR
STARTCHAR braceleft
ENCODING 123
SWIDTH 666 0
DWIDTH 8 0
BBX 8 13 0 -2
BITMAP
00
00
0E
10
10
08
30
08
10
10
0E
00
00
ENDCHAR
STARTCHAR bar
ENCODING 124
SWIDTH 666 0
DWIDTH 8 0
BBX 8 13 0 -2
BITMAP
00
00
10
10
10
10
10
10
10
10
10
00
00
ENDCHAR
STARTCHAR braceright
ENCODING 125
SWIDTH 666 0
DWIDTH 8 0
BBX 8 13 0 -2
BITMAP
00
00
70
08
08
10
0C
10
08
08
70
00
00
ENDCHAR
STARTCHAR asciitilde
ENCODING 126
SWIDTH 666 0
DWIDTH 8 0
BBX 8 13 0 -2
BITMAP
00
00
24
54
48
00
00
00
00
00
00
00
00
ENDCHAR
STARTCHAR delete
ENCODING 127
SWIDTH 666 0
DWIDTH 8 0
BBX 8 13 0 -2
BITMAP
00
00
00
00
00
00
00
00
00
00
00
00
00
ENDCHAR
STARTCHAR space
ENCODING 160
SWIDTH 666 0
DWIDTH 8 0
BBX 8 13 0 -2
BITMAP
00
00
00
00
00
00
00
00
00
00
00
00
00
ENDCHAR
STARTCHAR exclamdown
ENCODING 161
SWIDTH 666 0
DWIDTH 8 0
BBX 8 13 0 -2
BITMAP
00
00
10
00
10
10
10
10
10
10
10
00
00
ENDCHAR
STARTCHAR cent
ENCODING 162
SWIDTH 666 0
DWIDTH 8 0
BBX 8 13 0 -2
BITMAP
00
00
10
38
54
50
50
54
38
10
00
00
00
ENDCHAR
STARTCHAR sterling
ENCODING 163
SWIDTH 666 0
DWIDTH 8 0
BBX 8 13 0 -2
BITMAP
00
00
1C
22
20
70
20
20
20
62
DC
00
00
ENDCHAR
STARTCHAR currency
ENCODING 164
SWIDTH 666 0
DWIDTH 8 0
BBX 8 13 0 -2
BITMAP
00
00
00
00
42
3C
24
24
3C
42
00
00
00
ENDCHAR
STARTCHAR yen
ENCODING 165
SWIDTH 666 0
DWIDTH 8 0
BBX 8 13 0 -2
BITMAP
00
00
82
82
44
28
7C
10
7C
10
10
00
00
ENDCHAR
STARTCHAR brokenbar
ENCODING 166
SWIDTH 666 0
DWIDTH 8 0
BBX 8 13 0 -2
BITMAP
00
00
10
10
10
10
00
10
10
10
10
00
00
ENDCHAR
STARTCHAR section
ENCODING 167
SWIDTH 666 0
DWIDTH 8 0
BBX 8 13 0 -2
BITMAP
00
18
24
20
18
24
24
18
04
24
18
00
00
ENDCHAR
STARTCHAR dieresis
ENCODING 168
SWIDTH 666 0
DWIDTH 8 0
BBX 8 13 0 -2
BITMAP
00
00
6C
00
00
00
00
00
00
00
00
00
00
ENDCHAR
STARTCHAR copyright
ENCODING 169
SWIDTH 666 0
DWIDTH 8 0
BBX 8 13 0 -2
BITMAP
00
38
44
92
AA
A2
AA
92
44
38
00
00
00
ENDCHAR
STARTCHAR ordfeminine
ENCODING 170
SWIDTH 666 0
DWIDTH 8 0
BBX 8 13 0 -2
BITMAP
00
00
38
04
3C
44
3C
00
7C
00
00
00
00
ENDCHAR
STARTCHAR guillemotleft
ENCODING 171
SWIDTH 666 0
DWIDTH 8 0
BBX 8 13 0 -2
BITMAP
00
00
00
12
24
48
90
48
24
12
00
00
00
ENDCHAR
STARTCHAR logicalnot
ENCODING 172
SWIDTH 666 0
DWIDTH 8 0
BBX 8 13 0 -2
BITMAP
00
00
00
00
00
00
7E
02
02
02
00
00
00
ENDCHAR
STARTCHAR hyphen
ENCODING 173
SWIDTH 666 0
DWIDTH 8 0
BBX 8 13 0 -2
BITMAP
00
00
00
00
00
00
7E
00
00
00
00
00
00
ENDCHAR
STARTCHAR registered
ENCODING 174
SWIDTH 666 0
DWIDTH 8 0
BBX 8 13 0 -2
BITMAP
00
38
44
92
AA
AA
B2
AA
44
38
00
00
00
ENDCHAR
STARTCHAR macron
ENCODING 175
SWIDTH 666 0
DWIDTH 8 0
BBX 8 13 0 -2
BITMAP
00
00
7E
00
00
00
00
00
00
00
00
00
00
ENDCHAR
STARTCHAR degree
ENCODING 176
SWIDTH 666 0
DWIDTH 8 0
BBX 8 13 0 -2
BITMAP
00
00
18
24
24
18
00
00
00
00
00
00
00
ENDCHAR
STARTCHAR plusminus
ENCODING 177
SWIDTH 666 0
DWIDTH 8 0
BBX 8 13 0 -2
BITMAP
00
00
00
10
10
7C
10
10
00
7C
00
00
00
ENDCHAR
STARTCHAR twosuperior
ENCODING 178
SWIDTH 666 0
DWIDTH 8 0
BBX 8 13 0 -2
BITMAP
00
30
48
08
30
40
78
00
00
00
00
00
00
ENDCHAR
STARTCHAR threesuperior
ENCODING 179
SWIDTH 666 0
DWIDTH 8 0
BBX 8 13 0 -2
BITMAP
00
30
48
10
08
48
30
00
00
00
00
00
00
ENDCHAR
STARTCHAR acute
ENCODING 180
SWIDTH 666 0
DWIDTH 8 0
BBX 8 13 0 -2
BITMAP
00
08
10
00
00
00
00
00
00
00
00
00
00
ENDCHAR
STARTCHAR mu
ENCODING 181
SWIDTH 666 0
DWIDTH 8 0
BBX 8 13 0 -2
BITMAP
00
00
00
00
00
42
42
42
42
66
5A
40
00
ENDCHAR
STARTCHAR paragraph
ENCODING 182
SWIDTH 666 0
DWIDTH 8 0
BBX 8 13 0 -2
BITMAP
00
00
3E
74
74
74
34
14
14
14
14
00
00
ENDCHAR
STARTCHAR periodcentered
ENCODING 183
SWIDTH 666 0
DWIDTH 8 0
BBX 8 13 0 -2
BITMAP
00
00
00
00
00
00
18
00
00
00
00
00
00
ENDCHAR
STARTCHAR cedilla
ENCODING 184
SWIDTH 666 0
DWIDTH 8 0
BBX 8 13 0 -2
BITMAP
00
00
00
00
00
00
00
00
00
00
00
08
18
ENDCHAR
STARTCHAR onesuperior
ENCODING 185
SWIDTH 666 0
DWIDTH 8 0
BBX 8 13 0 -2
BITMAP
00
20
60
20
20
20
70
00
00
00
00
00
00
ENDCHAR
STARTCHAR ordmasculine
ENCODING 186
SWIDTH 666 0
DWIDTH 8 0
BBX 8 13 0 -2
BITMAP
00
00
30
48
48
30
00
78
00
00
00
00
00
ENDCHAR
STARTCHAR guillemotright
ENCODING 187
SWIDTH 666 0
DWIDTH 8 0
BBX 8 13 0 -2
BITMAP
00
00
00
90
48
24
12
24
48
90
00
00
00
ENDCHAR
STARTCHAR onequarter
ENCODING 188
SWIDTH 666 0
DWIDTH 8 0
BBX 8 13 0 -2
BITMAP
00
40
C0
40
40
42
E6
0A
12
1A
06
00
00
ENDCHAR
STARTCHAR onehalf
ENCODING 189
SWIDTH 666 0
DWIDTH 8 0
BBX 8 13 0 -2
BITMAP
00
40
C0
40
40
4C
F2
02
0C
10
1E
00
00
ENDCHAR
STARTCHAR threequarters
ENCODING 190
SWIDTH 666 0
DWIDTH 8 0
BBX 8 13 0 -2
BITMAP
00
60
90
20
10
92
66
0A
12
1A
06
00
00
ENDCHAR
STARTCHAR questiondown
ENCODING 191
SWIDTH 666 0
DWIDTH 8 0
BBX 8 13 0 -2
BITMAP
00
00
10
00
10
10
20
40
42
42
3C
00
00
ENDCHAR
STARTCHAR Agrave
ENCODING 192
SWIDTH 666 0
DWIDTH 8 0
BBX 8 13 0 -2
BITMAP
0000
1000
0800
0000
1800
2400
4200
4200
7e00
4200
4200
0000
0000
ENDCHAR
STARTCHAR Aacute
ENCODING 193
SWIDTH 666 0
DWIDTH 8 0
BBX 8 13 0 -2
BITMAP
0000
0800
1000
0000
1800
2400
4200
4200
7e00
4200
4200
0000
0000
ENDCHAR
STARTCHAR Acircumflex
ENCODING 194
SWIDTH 666 0
DWIDTH 8 0
BBX 8 13 0 -2
BITMAP
0000
1800
2400
0000
1800
2400
4200
4200
7e00
4200
4200
0000
0000
ENDCHAR
STARTCHAR Atilde
ENCODING 195
SWIDTH 666 0
DWIDTH 8 0
BBX 8 13 0 -2
BITMAP
0000
1400
2800
0000
1800
2400
4200
4200
7e00
4200
4200
0000
0000
ENDCHAR
STARTCHAR Adieresis
ENCODING 196
SWIDTH 666 0
DWIDTH 8 0
BBX 8 13 0 -2
BITMAP
0000
2400
2400
0000
1800
2400
4200
4200
7e00
4200
4200
0000
0000
ENDCHAR
STARTCHAR Aring
ENCODING 197
SWIDTH 666 0
DWIDTH 8 0
BBX 8 13 0 -2
BITMAP
0000
1800
2400
1800
1800
2400
4200
4200
7e00
4200
4200
0000
0000
ENDCHAR
STARTCHAR AE
ENCODING 198
SWIDTH 666 0
DWIDTH 8 0
BBX 8 13 0 -2
BITMAP
0000
0000
6e00
9000
9000
9000
9c00
f000
9000
9000
9e00
0000
0000
ENDCHAR
STARTCHAR Ccedilla
ENCODING 199
SWIDTH 666 0
DWIDTH 8 0
BBX 8 13 0 -2
BITMAP
0000
0000
3c00
4200
4000
4000
4000
4000
4000
4200
3c00
0800
1000
ENDCHAR
STARTCHAR Egrave
ENCODING 200
SWIDTH 666 0
DWIDTH 8 0
BBX 8 13 0 -2
BITMAP
0000
1000
0800
0000
7e00
4000
4000
7800
4000
4000
7e00
0000
0000
ENDCHAR
STARTCHAR Eacute
ENCODING 201
SWIDTH 666 0
DWIDTH 8 0
BBX 8 13 0 -2
BITMAP
0000
0800
1000
0000
7e00
4000
4000
7800
4000
4000
7e00
0000
0000
ENDCHAR
STARTCHAR Ecircumflex
ENCODING 202
SWIDTH 666 0
DWIDTH 8 0
BBX 8 13 0 -2
BITMAP
0000
1800
2400
0000
7e00
4000
4000
7800
4000
4000
7e00
0000
0000
ENDCHAR
STARTCHAR Edieresis
ENCODING 203
SWIDTH 666 0
DWIDTH 8 0
BBX 8 13 0 -2
BITMAP
0000
2400
2400
0000
7e00
4000
4000
7800
4000
4000
7e00
0000
0000
ENDCHAR
STARTCHAR Igrave
ENCODING 204
SWIDTH 666 0
DWIDTH 8 0
BBX 8 13 0 -2
BITMAP
0000
1000
0800
0000
7c00
1000
1000
1000
1000
1000
7c00
0000
0000
ENDCHAR
STARTCHAR Iacute
ENCODING 205
SWIDTH 666 0
DWIDTH 8 0
BBX 8 13 0 -2
BITMAP
0000
0800
1000
0000
7c00
1000
1000
1000
1000
1000
7c00
0000
0000
ENDCHAR
STARTCHAR Icircumflex
ENCODING 206
SWIDTH 666 0
DWIDTH 8 0
BBX 8 13 0 -2
BITMAP
0000
1800
2400
0000
7c00
1000
1000
1000
1000
1000
7c00
0000
0000
ENDCHAR
STARTCHAR Idieresis
ENCODING 207
SWIDTH 666 0
DWIDTH 8 0
BBX 8 13 0 -2
BITMAP
0000
2800
2800
0000
7c00
1000
1000
1000
1000
1000
7c00
0000
0000
ENDCHAR
STARTCHAR Eth
ENCODING 208
SWIDTH 666 0
DWIDTH 8 0
BBX 8 13 0 -2
BITMAP
0000
0000
fc00
4200
4200
4200
e200
4200
4200
4200
fc00
0000
0000
ENDCHAR
STARTCHAR Ntilde
ENCODING 209
SWIDTH 666 0
DWIDTH 8 0
BBX 8 13 0 -2
BITMAP
0000
1400
2800
0000
8200
c200
a200
9200
8a00
8600
8200
0000
0000
ENDCHAR
STARTCHAR Ograve
ENCODING 210
SWIDTH 666 0
DWIDTH 8 0
BBX 8 13 0 -2
BITMAP
0000
1000
0800
0000
7c00
8200
8200
8200
8200
8200
7c00
0000
0000
ENDCHAR
STARTCHAR Oacute
ENCODING 211
SWIDTH 666 0
DWIDTH 8 0
BBX 8 13 0 -2
BITMAP
0000
0800
1000
0000
7c00
8200
8200
8200
8200
8200
7c00
0000
0000
ENDCHAR
STARTCHAR Ocircumflex
ENCODING 212
SWIDTH 666 0
DWIDTH 8 0
BBX 8 13 0 -2
BITMAP
0000
1800
2400
0000
7c00
8200
8200
8200
8200
8200
7c00
0000
0000
ENDCHAR
STARTCHAR Otilde
ENCODING 213
SWIDTH 666 0
DWIDTH 8 0
BBX 8 13 0 -2
BITMAP
0000
1400
2800
0000
7c00
8200
8200
8200
8200
8200
7c00
0000
0000
ENDCHAR
STARTCHAR Odieresis
ENCODING 214
SWIDTH 666 0
DWIDTH 8 0
BBX 8 13 0 -2
BITMAP
0000
2800
2800
0000
7c00
8200
8200
8200
8200
8200
7c00
0000
0000
ENDCHAR
STARTCHAR multiply
ENCODING 215
SWIDTH 666 0
DWIDTH 8 0
BBX 8 13 0 -2
BITMAP
0000
0000
0000
0000
4200
2400
1800
1800
2400
4200
0000
0000
0000
ENDCHAR
STARTCHAR Oslash
ENCODING 216
SWIDTH 666 0
DWIDTH 8 0
BBX 8 13 0 -2
BITMAP
0000
0200
3c00
4600
4a00
4a00
5200
5200
5200
6200
3c00
4000
0000
ENDCHAR
STARTCHAR Ugrave
ENCODING 217
SWIDTH 666 0
DWIDTH 8 0
BBX 8 13 0 -2
BITMAP
0000
1000
0800
0000
4200
4200
4200
4200
4200
4200
3c00
0000
0000
ENDCHAR
STARTCHAR Uacute
ENCODING 218
SWIDTH 666 0
DWIDTH 8 0
BBX 8 13 0 -2
BITMAP
0000
0800
1000
0000
4200
4200
4200
4200
4200
4200
3c00
0000
0000
ENDCHAR
STARTCHAR Ucircumflex
ENCODING 219
SWIDTH 666 0
DWIDTH 8 0
BBX 8 13 0 -2
BITMAP
0000
1800
2400
0000
4200
4200
4200
4200
4200
4200
3c00
0000
0000
ENDCHAR
STARTCHAR Udieresis
ENCODING 220
SWIDTH 666 0
DWIDTH 8 0
BBX 8 13 0 -2
BITMAP
0000
2400
2400
0000
4200
4200
4200
4200
4200
4200
3c00
0000
0000
ENDCHAR
STARTCHAR Yacute
ENCODING 221
SWIDTH 666 0
DWIDTH 8 0
BBX 8 13 0 -2
BITMAP
0000
0800
1000
0000
4400
4400
2800
1000
1000
1000
1000
0000
0000
ENDCHAR
STARTCHAR Thorn
ENCODING 222
SWIDTH 666 0
DWIDTH 8 0
BBX 8 13 0 -2
BITMAP
0000
0000
4000
7c00
4200
4200
4200
7c00
4000
4000
4000
0000
0000
ENDCHAR
STARTCHAR germandbls
ENCODING 223
SWIDTH 666 0
DWIDTH 8 0
BBX 8 13 0 -2
BITMAP
0000
0000
0000
3c00
4200
4200
7c00
4200
4200
6200
5c00
4000
0000
ENDCHAR
STARTCHAR agrave
ENCODING 224
SWIDTH 666 0
DWIDTH 8 0
BBX 8 13 0 -2
BITMAP
0000
1000
0800
0000
0000
3c00
0200
3e00
4200
4600
3a00
0000
0000
ENDCHAR
STARTCHAR aacute
ENCODING 225
SWIDTH 666 0
DWIDTH 8 0
BBX 8 13 0 -2
BITMAP
0000
0800
1000
0000
0000
3c00
0200
3e00
4200
4600
3a00
0000
0000
ENDCHAR
STARTCHAR acircumflex
ENCODING 226
SWIDTH 666 0
DWIDTH 8 0
BBX 8 13 0 -2
BITMAP
0000
1800
2400
0000
0000
3c00
0200
3e00
4200
4600
3a00
0000
0000
ENDCHAR
STARTCHAR atilde
ENCODING 227
SWIDTH 666 0
DWIDTH 8 0
BBX 8 13 0 -2
BITMAP
0000
1400
2800
0000
0000
3c00
0200
3e00
4200
4600
3a00
0000
0000
ENDCHAR
STARTCHAR adieresis
ENCODING 228
SWIDTH 666 0
DWIDTH 8 0
BBX 8 13 0 -2
BITMAP
0000
2400
2400
0000
0000
3c00
0200
3e00
4200
4600
3a00
0000
0000
ENDCHAR
STARTCHAR aring
ENCODING 229
SWIDTH 666 0
DWIDTH 8 0
BBX 8 13 0 -2
BITMAP
0000
1800
2400
1800
0000
3c00
0200
3e00
4200
4600
3a00
0000
0000
ENDCHAR
STARTCHAR ae
ENCODING 230
SWIDTH 666 0
DWIDTH 8 0
BBX 8 13 0 -2
BITMAP
0000
0000
0000
0000
0000
6c00
1200
7c00
9000
9200
6c00
0000
0000
ENDCHAR
STARTCHAR ccedilla
ENCODING 231
SWIDTH 666 0
DWIDTH 8 0
BBX 8 13 0 -2
BITMAP
0000
0000
0000
0000
0000
3c00
4200
4000
4000
4200
3c00
0800
1000
ENDCHAR
STARTCHAR egrave
ENCODING 232
SWIDTH 666 0
DWIDTH 8 0
BBX 8 13 0 -2
BITMAP
0000
1000
0800
0000
0000
3c00
4200
7e00
4000
4200
3c00
0000
0000
ENDCHAR
STARTCHAR eacute
ENCODING 233
SWIDTH 666 0
DWIDTH 8 0
BBX 8 13 0 -2
BITMAP
0000
0800
1000
0000
0000
3c00
4200
7e00
4000
4200
3c00
0000
0000
ENDCHAR
STARTCHAR ecircumflex
ENCODING 234
SWIDTH 666 0
DWIDTH 8 0
BBX 8 13 0 -2
BITMAP
0000
1800
2400
0000
0000
3c00
4200
7e00
4000
4200
3c00
0000
0000
ENDCHAR
STARTCHAR edieresis
ENCODING 235
SWIDTH 666 0
DWIDTH 8 0
BBX 8 13 0 -2
BITMAP
0000
2400
2400
0000
0000
3c00
4200
7e00
4000
4200
3c00
0000
0000
ENDCHAR
STARTCHAR igrave
ENCODING 236
SWIDTH 666 0
DWIDTH 8 0
BBX 8 13 0 -2
BITMAP
0000
2000
1000
0000
0000
3000
1000
1000
1000
1000
7c00
0000
0000
ENDCHAR
STARTCHAR iacute
ENCODING 237
SWIDTH 666 0
DWIDTH 8 0
BBX 8 13 0 -2
BITMAP
0000
1000
2000
0000
0000
3000
1000
1000
1000
1000
7c00
0000
0000
ENDCHAR
STARTCHAR icircumflex
ENCODING 238
SWIDTH 666 0
DWIDTH 8 0
BBX 8 13 0 -2
BITMAP
0000
3000
4800
0000
0000
3000
1000
1000
1000
1000
7c00
0000
0000
ENDCHAR
STARTCHAR idieresis
ENCODING 239
SWIDTH 666 0
DWIDTH 8 0
BBX 8 13 0 -2
BITMAP
0000
2800
2800
0000
0000
3000
1000
1000
1000
1000
7c00
0000
0000
ENDCHAR
STARTCHAR eth
ENCODING 240
SWIDTH 666 0
DWIDTH 8 0
BBX 8 13 0 -2
BITMAP
0000
2400
1800
2800
0400
3c00
4200
4200
4200
4200
3c00
0000
0000
ENDCHAR
STARTCHAR ntilde
ENCODING 241
SWIDTH 666 0
DWIDTH 8 0
BBX 8 13 0 -2
BITMAP
0000
1400
2800
0000
0000
5c00
6200
4200
4200
4200
4200
0000
0000
ENDCHAR
STARTCHAR ograve
ENCODING 242
SWIDTH 666 0
DWIDTH 8 0
BBX 8 13 0 -2
BITMAP
0000
1000
0800
0000
0000
3c00
4200
4200
4200
4200
3c00
0000
0000
ENDCHAR
STARTCHAR oacute
ENCODING 243
SWIDTH 666 0
DWIDTH 8 0
BBX 8 13 0 -2
BITMAP
0000
0800
1000
0000
0000
3c00
4200
4200
4200
4200
3c00
0000
0000
ENDCHAR
STARTCHAR ocircumflex
ENCODING 244
SWIDTH 666 0
DWIDTH 8 0
BBX 8 13 0 -2
BITMAP
0000
1800
2400
0000
0000
3c00
4200
4200
4200
4200
3c00
0000
0000
ENDCHAR
STARTCHAR otilde
ENCODING 245
SWIDTH 666 0
DWIDTH 8 0
BBX 8 13 0 -2
BITMAP
0000
1400
2800
0000
0000
3c00
4200
4200
4200
4200
3c00
0000
0000
ENDCHAR
STARTCHAR odieresis
ENCODING 246
SWIDTH 666 0
DWIDTH 8 0
BBX 8 13 0 -2
BITMAP
0000
2400
2400
0000
0000
3c00
4200
4200
4200
4200
3c00
0000
0000
ENDCHAR
STARTCHAR divide
ENCODING 247
SWIDTH 666 0
DWIDTH 8 0
BBX 8 13 0 -2
BITMAP
0000
0000
0000
1000
1000
0000
7c00
0000
1000
1000
0000
0000
0000
ENDCHAR
STARTCHAR oslash
ENCODING 248
SWIDTH 666 0
DWIDTH 8 0
BBX 8 13 0 -2
BITMAP
0000
0000
0000
0000
0200
3c00
4600
4a00
5200
6200
3c00
4000
0000
ENDCHAR
STARTCHAR ugrave
ENCODING 249
SWIDTH 666 0
DWIDTH 8 0
BBX 8 13 0 -2
BITMAP
0000
1000
0800
0000
0000
4400
4400
4400
4400
4400
3a00
0000
0000
ENDCHAR
STARTCHAR uacute
ENCODING 250
SWIDTH 666 0
DWIDTH 8 0
BBX 8 13 0 -2
BITMAP
0000
0800
1000
0000
0000
4400
4400
4400
4400
4400
3a00
0000
0000
ENDCHAR
STARTCHAR ucircumflex
ENCODING 251
SWIDTH 666 0
DWIDTH 8 0
BBX 8 13 0 -2
BITMAP
0000
1800
2400
0000
0000
4400
4400
4400
4400
4400
3a00
0000
0000
ENDCHAR
STARTCHAR udieresis
ENCODING 252
SWIDTH 666 0
DWIDTH 8 0
BBX 8 13 0 -2
BITMAP
0000
2400
2400
0000
0000
4400
4400
4400
4400
4400
3a00
0000
0000
ENDCHAR
STARTCHAR yacute
ENCODING 253
SWIDTH 666 0
DWIDTH 8 0
BBX 8 13 0 -2
BITMAP
0000
0800
1000
0000
0000
4200
4200
4200
4600
3a00
0200
4200
3c00
ENDCHAR
STARTCHAR thorn
ENCODING 254
SWIDTH 666 0
DWIDTH 8 0
BBX 8 13 0 -2
BITMAP
0000
0000
0000
4000
4000
5c00
6200
4200
4200
6200
5c00
4000
4000
ENDCHAR
STARTCHAR ydieresis
ENCODING 255
SWIDTH 666 0
DWIDTH 8 0
BBX 8 13 0 -2
BITMAP
0000
2400
2400
0000
0000
4200
4200
4200
4600
3a00
0200
4200
3c00
ENDCHAR
STARTCHAR uni0400
ENCODING 1024
SWIDTH 666 0
DWIDTH 8 0
BBX 8 13 0 -2
BITMAP
0000
1000
0800
0000
7e00
4000
4000
7800
4000
4000
7e00
0000
0000
ENDCHAR
STARTCHAR afii10023
ENCODING 1025
SWIDTH 666 0
DWIDTH 8 0
BBX 8 13 0 -2
BITMAP
0000
2400
2400
0000
7e00
4000
4000
7800
4000
4000
7e00
0000
0000
ENDCHAR
STARTCHAR afii10051
ENCODING 1026
SWIDTH 666 0
DWIDTH 8 0
BBX 8 13 0 -2
BITMAP
00
00
F8
40
40
40
7C
42
42
42
4C
00
00
ENDCHAR
STARTCHAR afii10052
ENCODING 1027
SWIDTH 666 0
DWIDTH 8 0
BBX 8 13 0 -2
BITMAP
00
08
10
00
7E
40
40
40
40
40
40
00
00
ENDCHAR
STARTCHAR afii10053
ENCODING 1028
SWIDTH 666 0
DWIDTH 8 0
BBX 8 13 0 -2
BITMAP
00
00
3C
42
40
40
78
40
40
42
3C
00
00
ENDCHAR
STARTCHAR afii10054
ENCODING 1029
SWIDTH 666 0
DWIDTH 8 0
BBX 8 13 0 -2
BITMAP
00
00
3C
42
40
40
3C
02
02
42
3C
00
00
ENDCHAR
STARTCHAR afii10055
ENCODING 1030
SWIDTH 666 0
DWIDTH 8 0
BBX 8 13 0 -2
BITMAP
00
00
7C
10
10
10
10
10
10
10
7C
00
00
ENDCHAR
STARTCHAR afii10056
ENCODING 1031
SWIDTH 666 0
DWIDTH 8 0
BBX 8 13 0 -2
BITMAP
0000
2800
2800
0000
7c00
1000
1000
1000
1000
1000
7c00
0000
0000
ENDCHAR
STARTCHAR afii10057
ENCODING 1032
SWIDTH 666 0
DWIDTH 8 0
BBX 8 13 0 -2
BITMAP
00
00
1E
04
04
04
04
04
04
44
38
00
00
ENDCHAR
STARTCHAR afii10058
ENCODING 1033
SWIDTH 666 0
DWIDTH 8 0
BBX 8 13 0 -2
BITMAP
00
00
30
50
50
50
5C
52
52
52
9C
00
00
ENDCHAR
STARTCHAR afii10059
ENCODING 1034
SWIDTH 666 0
DWIDTH 8 0
BBX 8 13 0 -2
BITMAP
00
00
90
90
90
90
FC
92
92
92
9C
00
00
ENDCHAR
STARTCHAR afii10060
ENCODING 1035
SWIDTH 666 0
DWIDTH 8 0
BBX 8 13 0 -2
BITMAP
00
00
F8
40
40
40
7C
42
42
42
42
00
00
ENDCHAR
STARTCHAR afii10061
ENCODING 1036
SWIDTH 666 0
DWIDTH 8 0
BBX 8 13 0 -2
BITMAP
00
08
10
00
42
44
48
70
48
44
42
00
00
ENDCHAR
STARTCHAR afii10062
ENCODING 1038
SWIDTH 666 0
DWIDTH 8 0
BBX 8 13 0 -2
BITMAP
00
3C
00
42
42
42
3E
02
02
42
3C
00
00
ENDCHAR
STARTCHAR afii10145
ENCODING 1039
SWIDTH 666 0
DWIDTH 8 0
BBX 8 13 0 -2
BITMAP
00
00
42
42
42
42
42
42
42
42
7E
08
08
ENDCHAR
STARTCHAR afii10017
ENCODING 1040
SWIDTH 666 0
DWIDTH 8 0
BBX 8 13 0 -2
BITMAP
00
00
18
24
42
42
42
7E
42
42
42
00
00
ENDCHAR
STARTCHAR afii10018
ENCODING 1041
SWIDTH 666 0
DWIDTH 8 0
BBX 8 13 0 -2
BITMAP
00
00
7E
40
40
40
7C
42
42
42
7C
00
00
ENDCHAR
STARTCHAR afii10019
ENCODING 1042
SWIDTH 666 0
DWIDTH 8 0
BBX 8 13 0 -2
BITMAP
00
00
FC
42
42
42
7C
42
42
42
FC
00
00
ENDCHAR
STARTCHAR afii10020
ENCODING 1043
SWIDTH 666 0
DWIDTH 8 0
BBX 8 13 0 -2
BITMAP
00
00
7E
40
40
40
40
40
40
40
40
00
00
ENDCHAR
STARTCHAR afii10021
ENCODING 1044
SWIDTH 666 0
DWIDTH 8 0
BBX 8 13 0 -2
BITMAP
00
00
3C
44
44
44
44
44
44
44
FE
82
82
ENDCHAR
STARTCHAR afii10022
ENCODING 1045
SWIDTH 666 0
DWIDTH 8 0
BBX 8 13 0 -2
BITMAP
00
00
7E
40
40
40
78
40
40
40
7E
00
00
ENDCHAR
STARTCHAR afii10024
ENCODING 1046
SWIDTH 666 0
DWIDTH 8 0
BBX 8 13 0 -2
BITMAP
00
00
92
92
54
38
10
38
54
92
92
00
00
ENDCHAR
STARTCHAR afii10025
ENCODING 1047
SWIDTH 666 0
DWIDTH 8 0
BBX 8 13 0 -2
BITMAP
00
00
3C
42
02
02
1C
02
02
42
3C
00
00
ENDCHAR
STARTCHAR afii10026
ENCODING 1048
SWIDTH 666 0
DWIDTH 8 0
BBX 8 13 0 -2
BITMAP
00
00
42
42
42
46
4A
52
62
42
42
00
00
ENDCHAR
STARTCHAR afii10027
ENCODING 1049
SWIDTH 666 0
DWIDTH 8 0
BBX 8 13 0 -2
BITMAP
00
3C
00
42
42
46
4A
52
62
42
42
00
00
ENDCHAR
STARTCHAR afii10028
ENCODING 1050
SWIDTH 666 0
DWIDTH 8 0
BBX 8 13 0 -2
BITMAP
00
00
42
44
48
50
60
50
48
44
42
00
00
ENDCHAR
STARTCHAR afii10029
ENCODING 1051
SWIDTH 666 0
DWIDTH 8 0
BBX 8 13 0 -2
BITMAP
00
00
1E
22
22
22
22
22
22
22
42
00
00
ENDCHAR
STARTCHAR afii10030
ENCODING 1052
SWIDTH 666 0
DWIDTH 8 0
BBX 8 13 0 -2
BITMAP
00
00
82
82
C6
AA
92
92
82
82
82
00
00
ENDCHAR
STARTCHAR afii10031
ENCODING 1053
SWIDTH 666 0
DWIDTH 8 0
BBX 8 13 0 -2
BITMAP
00
00
42
42
42
42
7E
42
42
42
42
00
00
ENDCHAR
STARTCHAR afii10032
ENCODING 1054
SWIDTH 666 0
DWIDTH 8 0
BBX 8 13 0 -2
BITMAP
00
00
3C
42
42
42
42
42
42
42
3C
00
00
ENDCHAR
STARTCHAR afii10033
ENCODING 1055
SWIDTH 666 0
DWIDTH 8 0
BBX 8 13 0 -2
BITMAP
00
00
7E
42
42
42
42
42
42
42
42
00
00
ENDCHAR
STARTCHAR afii10034
ENCODING 1056
SWIDTH 666 0
DWIDTH 8 0
BBX 8 13 0 -2
BITMAP
00
00
7C
42
42
42
7C
40
40
40
40
00
00
ENDCHAR
STARTCHAR afii10035
ENCODING 1057
SWIDTH 666 0
DWIDTH 8 0
BBX 8 13 0 -2
BITMAP
00
00
3C
42
40
40
40
40
40
42
3C
00
00
ENDCHAR
STARTCHAR afii10036
ENCODING 1058
SWIDTH 666 0
DWIDTH 8 0
BBX 8 13 0 -2
BITMAP
00
00
FE
10
10
10
10
10
10
10
10
00
00
ENDCHAR
STARTCHAR afii10037
ENCODING 1059
SWIDTH 666 0
DWIDTH 8 0
BBX 8 13 0 -2
BITMAP
00
00
42
42
42
42
3E
02
02
42
3C
00
00
ENDCHAR
STARTCHAR afii10038
ENCODING 1060
SWIDTH 666 0
DWIDTH 8 0
BBX 8 13 0 -2
BITMAP
00
00
10
7C
92
92
92
92
92
7C
10
00
00
ENDCHAR
STARTCHAR afii10039
ENCODING 1061
SWIDTH 666 0
DWIDTH 8 0
BBX 8 13 0 -2
BITMAP
00
00
82
82
44
28
10
28
44
82
82
00
00
ENDCHAR
STARTCHAR afii10040
ENCODING 1062
SWIDTH 666 0
DWIDTH 8 0
BBX 8 13 0 -2
BITMAP
00
00
42
42
42
42
42
42
42
42
7F
01
01
ENDCHAR
STARTCHAR afii10041
ENCODING 1063
SWIDTH 666 0
DWIDTH 8 0
BBX 8 13 0 -2
BITMAP
00
00
42
42
42
42
3E
02
02
02
02
00
00
ENDCHAR
STARTCHAR afii10042
ENCODING 1064
SWIDTH 666 0
DWIDTH 8 0
BBX 8 13 0 -2
BITMAP
00
00
82
82
92
92
92
92
92
92
FE
00
00
ENDCHAR
STARTCHAR afii10043
ENCODING 1065
SWIDTH 666 0
DWIDTH 8 0
BBX 8 13 0 -2
BITMAP
00
00
82
82
92
92
92
92
92
92
FF
01
01
ENDCHAR
STARTCHAR afii10044
ENCODING 1066
SWIDTH 666 0
DWIDTH 8 0
BBX 8 13 0 -2
BITMAP
00
00
60
20
20
20
3C
22
22
22
3C
00
00
ENDCHAR
STARTCHAR afii10045
ENCODING 1067
SWIDTH 666 0
DWIDTH 8 0
BBX 8 13 0 -2
BITMAP
00
00
82
82
82
82
F2
8A
8A
8A
F2
00
00
ENDCHAR
STARTCHAR afii10046
ENCODING 1068
SWIDTH 666 0
DWIDTH 8 0
BBX 8 13 0 -2
BITMAP
00
00
40
40
40
40
7C
42
42
42
7C
00
00
ENDCHAR
STARTCHAR afii10047
ENCODING 1069
SWIDTH 666 0
DWIDTH 8 0
BBX 8 13 0 -2
BITMAP
00
00
3C
42
02
02
1E
02
02
42
3C
00
00
ENDCHAR
STARTCHAR afii10048
ENCODING 1070
SWIDTH 666 0
DWIDTH 8 0
BBX 8 13 0 -2
BITMAP
00
00
9C
A2
A2
A2
E2
A2
A2
A2
9C
00
00
ENDCHAR
STARTCHAR afii10049
ENCODING 1071
SWIDTH 666 0
DWIDTH 8 0
BBX 8 13 0 -2
BITMAP
00
00
3E
42
42
42
3E
0A
12
22
42
00
00
ENDCHAR
STARTCHAR afii10065
ENCODING 1072
SWIDTH 666 0
DWIDTH 8 0
BBX 8 13 0 -2
BITMAP
00
00
00
00
00
3C
02
3E
42
46
3A
00
00
ENDCHAR
STARTCHAR afii10066
ENCODING 1073
SWIDTH 666 0
DWIDTH 8 0
BBX 8 13 0 -2
BITMAP
00
00
02
3C
40
5C
62
42
42
42
3C
00
00
ENDCHAR
STARTCHAR afii10067
ENCODING 1074
SWIDTH 666 0
DWIDTH 8 0
BBX 8 13 0 -2
BITMAP
00
00
00
00
00
7C
42
7C
42
42
7C
00
00
ENDCHAR
STARTCHAR afii10068
ENCODING 1075
SWIDTH 666 0
DWIDTH 8 0
BBX 8 13 0 -2
BITMAP
00
00
00
00
00
3E
20
20
20
20
20
00
00
ENDCHAR
STARTCHAR afii10069
ENCODING 1076
SWIDTH 666 0
DWIDTH 8 0
BBX 8 13 0 -2
BITMAP
00
00
00
00
00
3C
44
44
44
44
FE
82
00
ENDCHAR
STARTCHAR afii10070
ENCODING 1077
SWIDTH 666 0
DWIDTH 8 0
BBX 8 13 0 -2
BITMAP
00
00
00
00
00
3C
42
7E
40
42
3C
00
00
ENDCHAR
STARTCHAR afii10072
ENCODING 1078
SWIDTH 666 0
DWIDTH 8 0
BBX 8 13 0 -2
BITMAP
00
00
00
00
00
92
54
38
38
54
92
00
00
ENDCHAR
STARTCHAR afii10073
ENCODING 1079
SWIDTH 666 0
DWIDTH 8 0
BBX 8 13 0 -2
BITMAP
00
00
00
00
00
3C
42
1C
02
42
3C
00
00
ENDCHAR
STARTCHAR afii10074
ENCODING 1080
SWIDTH 666 0
DWIDTH 8 0
BBX 8 13 0 -2
BITMAP
00
00
00
00
00
42
46
4A
52
62
42
00
00
ENDCHAR
STARTCHAR afii10075
ENCODING 1081
SWIDTH 666 0
DWIDTH 8 0
BBX 8 13 0 -2
BITMAP
00
00
00
3C
00
42
46
4A
52
62
42
00
00
ENDCHAR
STARTCHAR afii10076
ENCODING 1082
SWIDTH 666 0
DWIDTH 8 0
BBX 8 13 0 -2
BITMAP
00
00
00
00
00
44
48
70
48
44
42
00
00
ENDCHAR
STARTCHAR afii10077
ENCODING 1083
SWIDTH 666 0
DWIDTH 8 0
BBX 8 13 0 -2
BITMAP
00
00
00
00
00
1E
22
22
22
22
42
00
00
ENDCHAR
STARTCHAR afii10078
ENCODING 1084
SWIDTH 666 0
DWIDTH 8 0
BBX 8 13 0 -2
BITMAP
00
00
00
00
00
82
C6
AA
92
82
82
00
00
ENDCHAR
STARTCHAR afii10079
ENCODING 1085
SWIDTH 666 0
DWIDTH 8 0
BBX 8 13 0 -2
BITMAP
00
00
00
00
00
42
42
7E
42
42
42
00
00
ENDCHAR
STARTCHAR afii10080
ENCODING 1086
SWIDTH 666 0
DWIDTH 8 0
BBX 8 13 0 -2
BITMAP
00
00
00
00
00
3C
42
42
42
42
3C
00
00
ENDCHAR
STARTCHAR afii10081
ENCODING 1087
SWIDTH 666 0
DWIDTH 8 0
BBX 8 13 0 -2
BITMAP
00
00
00
00
00
7E
42
42
42
42
42
00
00
ENDCHAR
STARTCHAR afii10082
ENCODING 1088
SWIDTH 666 0
DWIDTH 8 0
BBX 8 13 0 -2
BITMAP
00
00
00
00
00
5C
62
42
62
5C
40
40
40
ENDCHAR
STARTCHAR afii10083
ENCODING 1089
SWIDTH 666 0
DWIDTH 8 0
BBX 8 13 0 -2
BITMAP
00
00
00
00
00
3C
42
40
40
42
3C
00
00
ENDCHAR
STARTCHAR afii10084
ENCODING 1090
SWIDTH 666 0
DWIDTH 8 0
BBX 8 13 0 -2
BITMAP
00
00
00
00
00
7C
10
10
10
10
10
00
00
ENDCHAR
STARTCHAR afii10085
ENCODING 1091
SWIDTH 666 0
DWIDTH 8 0
BBX 8 13 0 -2
BITMAP
00
00
00
00
00
42
42
42
46
3A
02
42
3C
ENDCHAR
STARTCHAR afii10086
ENCODING 1092
SWIDTH 666 0
DWIDTH 8 0
BBX 8 13 0 -2
BITMAP
00
00
00
00
10
7C
92
92
92
7C
10
10
10
ENDCHAR
STARTCHAR afii10087
ENCODING 1093
SWIDTH 666 0
DWIDTH 8 0
BBX 8 13 0 -2
BITMAP
00
00
00
00
00
42
24
18
18
24
42
00
00
ENDCHAR
STARTCHAR afii10088
ENCODING 1094
SWIDTH 666 0
DWIDTH 8 0
BBX 8 13 0 -2
BITMAP
00
00
00
00
00
44
44
44
44
44
7E
02
00
ENDCHAR
STARTCHAR afii10089
ENCODING 1095
SWIDTH 666 0
DWIDTH 8 0
BBX 8 13 0 -2
BITMAP
00
00
00
00
00
42
42
42
3E
02
02
00
00
ENDCHAR
STARTCHAR afii10090
ENCODING 1096
SWIDTH 666 0
DWIDTH 8 0
BBX 8 13 0 -2
BITMAP
00
00
00
00
00
82
92
92
92
92
FE
00
00
ENDCHAR
STARTCHAR afii10091
ENCODING 1097
SWIDTH 666 0
DWIDTH 8 0
BBX 8 13 0 -2
BITMAP
00
00
00
00
00
82
92
92
92
92
FF
01
00
ENDCHAR
STARTCHAR afii10092
ENCODING 1098
SWIDTH 666 0
DWIDTH 8 0
BBX 8 13 0 -2
BITMAP
00
00
00
00
00
60
20
3C
22
22
3C
00
00
ENDCHAR
STARTCHAR afii10093
ENCODING 1099
SWIDTH 666 0
DWIDTH 8 0
BBX 8 13 0 -2
BITMAP
00
00
00
00
00
82
82
F2
8A
8A
F2
00
00
ENDCHAR
STARTCHAR afii10094
ENCODING 1100
SWIDTH 666 0
DWIDTH 8 0
BBX 8 13 0 -2
BITMAP
00
00
00
00
00
40
40
7C
42
42
7C
00
00
ENDCHAR
STARTCHAR afii10095
ENCODING 1101
SWIDTH 666 0
DWIDTH 8 0
BBX 8 13 0 -2
BITMAP
00
00
00
00
00
3C
42
1E
02
42
3C
00
00
ENDCHAR
STARTCHAR afii10096
ENCODING 1102
SWIDTH 666 0
DWIDTH 8 0
BBX 8 13 0 -2
BITMAP
00
00
00
00
00
9C
A2
E2
A2
A2
9C
00
00
ENDCHAR
STARTCHAR afii10097
ENCODING 1103
SWIDTH 666 0
DWIDTH 8 0
BBX 8 13 0 -2
BITMAP
00
00
00
00
00
3E
42
42
3E
22
42
00
00
ENDCHAR
STARTCHAR uni0450
ENCODING 1104
SWIDTH 666 0
DWIDTH 8 0
BBX 8 13 0 -2
BITMAP
0000
1000
0800
0000
0000
3c00
4200
7e00
4000
4200
3c00
0000
0000
ENDCHAR
STARTCHAR afii10071
ENCODING 1105
SWIDTH 666 0
DWIDTH 8 0
BBX 8 13 0 -2
BITMAP
0000
2400
2400
0000
0000
3c00
4200
7e00
4000
4200
3c00
0000
0000
ENDCHAR
STARTCHAR afii10099
ENCODING 1106
SWIDTH 666 0
DWIDTH 8 0
BBX 8 13 0 -2
BITMAP
00
00
40
F8
40
5C
62
42
42
42
42
02
1C
ENDCHAR
STARTCHAR afii10100
ENCODING 1107
SWIDTH 666 0
DWIDTH 8 0
BBX 8 13 0 -2
BITMAP
00
08
10
00
00
3E
20
20
20
20
20
00
00
ENDCHAR
STARTCHAR afii10101
ENCODING 1108
SWIDTH 666 0
DWIDTH 8 0
BBX 8 13 0 -2
BITMAP
00
00
00
00
00
3C
42
78
40
42
3C
00
00
ENDCHAR
STARTCHAR afii10102
ENCODING 1109
SWIDTH 666 0
DWIDTH 8 0
BBX 8 13 0 -2
BITMAP
00
00
00
00
00
3C
42
30
0C
42
3C
00
00
ENDCHAR
STARTCHAR afii10103
ENCODING 1110
SWIDTH 666 0
DWIDTH 8 0
BBX 8 13 0 -2
BITMAP
00
00
00
10
00
30
10
10
10
10
7C
00
00
ENDCHAR
STARTCHAR afii10104
ENCODING 1111
SWIDTH 666 0
DWIDTH 8 0
BBX 8 13 0 -2
BITMAP
0000
2800
2800
0000
0000
3000
1000
1000
1000
1000
7c00
0000
0000
ENDCHAR
STARTCHAR afii10105
ENCODING 1112
SWIDTH 666 0
DWIDTH 8 0
BBX 8 13 0 -2
BITMAP
00
00
00
04
00
0C
04
04
04
04
44
44
38
ENDCHAR
STARTCHAR afii10106
ENCODING 1113
SWIDTH 666 0
DWIDTH 8 0
BBX 8 13 0 -2
BITMAP
00
00
00
00
00
30
50
5C
52
52
9C
00
00
ENDCHAR
STARTCHAR afii10107
ENCODING 1114
SWIDTH 666 0
DWIDTH 8 0
BBX 8 13 0 -2
BITMAP
00
00
00
00
00
90
90
FC
92
92
9C
00
00
ENDCHAR
STARTCHAR afii10108
ENCODING 1115
SWIDTH 666 0
DWIDTH 8 0
BBX 8 13 0 -2
BITMAP
00
00
40
F8
40
5C
62
42
42
42
42
00
00
ENDCHAR
STARTCHAR afii10109
ENCODING 1116
SWIDTH 666 0
DWIDTH 8 0
BBX 8 13 0 -2
BITMAP
00
08
10
00
00
44
48
70
48
44
42
00
00
ENDCHAR
STARTCHAR afii10110
ENCODING 1118
SWIDTH 666 0
DWIDTH 8 0
BBX 8 13 0 -2
BITMAP
00
00
00
3C
00
42
42
42
46
3A
02
42
3C
ENDCHAR
STARTCHAR afii10193
ENCODING 1119
SWIDTH 666 0
DWIDTH 8 0
BBX 8 13 0 -2
BITMAP
00
00
00
00
00
42
42
42
42
42
7E
08
08
ENDCHAR
STARTCHAR afii10146
ENCODING 1122
SWIDTH 666 0
DWIDTH 8 0
BBX 8 13 0 -2
BITMAP
00
00
20
70
20
20
3C
22
22
22
3C
00
00
ENDCHAR
STARTCHAR afii10194
ENCODING 1123
SWIDTH 666 0
DWIDTH 8 0
BBX 8 13 0 -2
BITMAP
00
00
20
20
20
70
20
3C
22
22
3C
00
00
ENDCHAR
STARTCHAR uni0470
ENCODING 1136
SWIDTH 666 0
DWIDTH 8 0
BBX 8 13 0 -2
BITMAP
00
00
92
92
92
92
92
7C
10
10
10
00
00
ENDCHAR
STARTCHAR uni0471
ENCODING 1137
SWIDTH 666 0
DWIDTH 8 0
BBX 8 13 0 -2
BITMAP
00
00
00
00
10
92
92
92
92
7C
10
10
10
ENDCHAR
STARTCHAR afii10147
ENCODING 1138
SWIDTH 666 0
DWIDTH 8 0
BBX 8 13 0 -2
BITMAP
00
00
3C
42
42
42
7E
42
42
42
3C
00
00
ENDCHAR
STARTCHAR afii10195
ENCODING 1139
SWIDTH 666 0
DWIDTH 8 0
BBX 8 13 0 -2
BITMAP
00
00
00
00
00
3C
42
7E
42
42
3C
00
00
ENDCHAR
STARTCHAR afii10148
ENCODING 1140
SWIDTH 666 0
DWIDTH 8 0
BBX 8 13 0 -2
BITMAP
00
00
82
84
44
48
48
28
28
10
10
00
00
ENDCHAR
STARTCHAR afii10196
ENCODING 1141
SWIDTH 666 0
DWIDTH 8 0
BBX 8 13 0 -2
BITMAP
00
00
00
00
00
42
44
28
28
10
10
00
00
ENDCHAR
STARTCHAR afii10050
ENCODING 1168
SWIDTH 666 0
DWIDTH 8 0
BBX 8 13 0 -2
BITMAP
00
02
02
7E
40
40
40
40
40
40
40
00
00
ENDCHAR
STARTCHAR afii10098
ENCODING 1169
SWIDTH 666 0
DWIDTH 8 0
BBX 8 13 0 -2
BITMAP
00
00
00
00
02
3E
20
20
20
20
20
00
00
ENDCHAR
STARTCHAR uni04AA
ENCODING 1194
SWIDTH 666 0
DWIDTH 8 0
BBX 8 13 0 -2
BITMAP
0000
0000
3c00
4200
4000
4000
4000
4000
4000
4200
3c00
0800
1000
ENDCHAR
STARTCHAR uni04AB
ENCODING 1195
SWIDTH 666 0
DWIDTH 8 0
BBX 8 13 0 -2
BITMAP
0000
0000
0000
0000
0000
3c00
4200
4000
4000
4200
3c00
0800
1000
ENDCHAR
STARTCHAR uni04AE
ENCODING 1198
SWIDTH 666 0
DWIDTH 8 0
BBX 8 13 0 -2
BITMAP
00
00
82
82
44
28
10
10
10
10
10
00
00
ENDCHAR
STARTCHAR uni04C0
ENCODING 1216
SWIDTH 666 0
DWIDTH 8 0
BBX 8 13 0 -2
BITMAP
00
00
7C
10
10
10
10
10
10
10
7C
00
00
ENDCHAR
STARTCHAR uni04D2
ENCODING 1234
SWIDTH 666 0
DWIDTH 8 0
BBX 8 13 0 -2
BITMAP
0000
2400
2400
0000
1800
2400
4200
4200
7e00
4200
4200
0000
0000
ENDCHAR
STARTCHAR uni04D3
ENCODING 1235
SWIDTH 666 0
DWIDTH 8 0
BBX 8 13 0 -2
BITMAP
0000
2400
2400
0000
0000
3c00
0200
3e00
4200
4600
3a00
0000
0000
ENDCHAR
STARTCHAR uni04D4
ENCODING 1236
SWIDTH 666 0
DWIDTH 8 0
BBX 8 13 0 -2
BITMAP
0000
0000
6e00
9000
9000
9000
9c00
f000
9000
9000
9e00
0000
0000
ENDCHAR
STARTCHAR uni04D5
ENCODING 1237
SWIDTH 666 0
DWIDTH 8 0
BBX 8 13 0 -2
BITMAP
0000
0000
0000
0000
0000
6c00
1200
7c00
9000
9200
6c00
0000
0000
ENDCHAR
STARTCHAR uni04E6
ENCODING 1254
SWIDTH 666 0
DWIDTH 8 0
BBX 8 13 0 -2
BITMAP
0000
2800
2800
0000
7c00
8200
8200
8200
8200
8200
7c00
0000
0000
ENDCHAR
STARTCHAR uni04E7
ENCODING 1255
SWIDTH 666 0
DWIDTH 8 0
BBX 8 13 0 -2
BITMAP
0000
2400
2400
0000
0000
3c00
4200
4200
4200
4200
3c00
0000
0000
ENDCHAR
STARTCHAR uni04E8
ENCODING 1256
SWIDTH 666 0
DWIDTH 8 0
BBX 8 13 0 -2
BITMAP
00
00
3C
42
42
42
7E
42
42
42
3C
00
00
ENDCHAR
STARTCHAR uni04E9
ENCODING 1257
SWIDTH 666 0
DWIDTH 8 0
BBX 8 13 0 -2
BITMAP
00
00
00
00
00
3C
42
7E
42
42
3C
00
00
ENDCHAR
ENDFONT
